<?xml version="1.0" encoding="UTF-8"?>
<svg xmlns="http://www.w3.org/2000/svg" width="28" height="40" viewBox="0 0 28 40" fill="none">
  <g clip-path="url(#clip0_183_73)">
    <path d="M27.8375 31.8088C27.8375 31.679 27.8374 31.5373 27.7794 31.4075C27.2568 28.0437 26.7226 24.6799 26.2 21.316L25.596 17.5273C25.1896 14.8952 24.7715 12.2632 24.365 9.63115C24.2692 8.87295 23.9527 8.16112 23.4561 7.587C22.9595 7.01289 22.3054 6.60269 21.5778 6.40898C21.0845 6.31177 20.581 6.28001 20.0797 6.31454H19.6848C19.5499 6.33201 19.4136 6.29659 19.3035 6.21545C19.1935 6.13431 19.118 6.01356 19.0925 5.87784C18.9259 5.24479 18.5941 4.66928 18.1321 4.21219C17.67 3.75509 17.095 3.4334 16.4679 3.28119C16.166 3.18677 15.9917 3.05693 16.0847 2.65564C16.2029 2.14919 16.1363 1.61634 15.897 1.15611C15.6578 0.695868 15.2622 0.339556 14.7839 0.153429C14.7455 0.146594 14.7062 0.146594 14.6678 0.153429C14.5683 0.132672 14.4737 0.092589 14.3891 0.0353928H13.5645C12.0664 0.719961 11.7645 1.21571 11.927 2.86812C11.927 3.16319 11.7877 3.23398 11.6251 3.28119C10.9639 3.4288 10.3558 3.75941 9.86798 4.23643C9.38018 4.71344 9.0317 5.31828 8.86109 5.98406C8.8439 6.09819 8.78293 6.20077 8.69152 6.26934C8.60012 6.3379 8.48571 6.36688 8.37333 6.34995H7.29327C6.4476 6.34218 5.62589 6.63529 4.9705 7.17851C4.3151 7.72172 3.86733 8.48083 3.70472 9.3243C3.37955 11.2128 3.0776 13.1366 2.79888 14.9897L2.45047 17.1968L0.0464983 32.5406C-0.0395244 33.0769 -0.00957847 33.6258 0.134269 34.1492C0.278116 34.6725 0.532413 35.1577 0.87946 35.5711C1.22651 35.9845 1.65798 36.3161 2.14388 36.5428C2.62979 36.7695 3.15845 36.886 3.69312 36.884H5.35383C5.49319 36.884 5.70223 36.8841 5.80675 37.0257C5.84436 37.0964 5.86406 37.1755 5.86406 37.2558C5.86406 37.3362 5.84436 37.4153 5.80675 37.486C5.71101 37.7133 5.66352 37.9587 5.6674 38.206C5.68111 38.2958 5.67577 38.3875 5.65173 38.475C5.6277 38.5626 5.58553 38.6439 5.52804 38.7135C5.45433 38.7699 5.36908 38.8087 5.27862 38.8271C5.18817 38.8455 5.0948 38.8429 5.00542 38.8197H4.83123C4.56412 38.8197 4.09958 38.9023 4.09958 39.4335C4.09958 39.9646 4.56412 40.0354 4.83123 40.0354H10.3825C10.6496 40.0354 11.1141 39.9646 11.1141 39.4335C11.119 39.3559 11.1081 39.2782 11.0821 39.2051C11.0561 39.132 11.0156 39.0651 10.9631 39.0086C10.8004 38.8725 10.5926 38.805 10.3825 38.8197H7.32811C7.18661 38.8318 7.04578 38.7897 6.93326 38.7017C6.89459 38.6458 6.86835 38.582 6.85632 38.5147C6.84428 38.4475 6.84676 38.3784 6.86358 38.3122C6.91018 37.8353 7.0887 37.3815 7.37849 37.0035C7.66828 36.6254 8.0575 36.3385 8.50108 36.1759L9.38369 35.869L10.0457 35.6447C10.3839 35.5339 10.6885 35.3369 10.9304 35.0724C11.1724 34.8079 11.3435 34.4848 11.4277 34.134C11.4422 34.0138 11.5028 33.9042 11.5963 33.8291C11.6898 33.754 11.8086 33.7193 11.927 33.7327H16.0847C16.2031 33.7193 16.3219 33.754 16.4154 33.8291C16.5089 33.9042 16.5695 34.0138 16.584 34.134C16.6705 34.4906 16.8466 34.8183 17.0949 35.0851C17.3432 35.352 17.6553 35.5489 18.0009 35.6566L18.6512 35.869L19.3945 36.1287C19.8519 36.2732 20.2591 36.5479 20.5678 36.9202C20.8765 37.2925 21.0738 37.7469 21.1365 38.2296C21.1576 38.3069 21.1624 38.388 21.1503 38.4673C21.1383 38.5467 21.1099 38.6225 21.0668 38.6899C21.0119 38.7437 20.9459 38.7844 20.8736 38.8089C20.8012 38.8334 20.7244 38.8411 20.6487 38.8315H17.4783C17.4 38.8315 17.3226 38.8475 17.2506 38.8786C17.1785 38.9097 17.1135 38.9553 17.0592 39.0126C17.005 39.07 16.9627 39.1378 16.9349 39.2122C16.9072 39.2865 16.8945 39.3658 16.8976 39.4453C16.8929 39.5206 16.9031 39.5962 16.9275 39.6675C16.952 39.7389 16.9902 39.8045 17.04 39.8606C17.0898 39.9167 17.1501 39.962 17.2173 39.9941C17.2846 40.0261 17.3576 40.0442 17.4318 40.0472C19.348 40.0472 21.3455 40.0472 23.3663 40.0472C23.441 40.0442 23.5145 40.0262 23.5824 39.9943C23.6503 39.9624 23.7113 39.9172 23.762 39.8613C23.8127 39.8054 23.8521 39.7398 23.8778 39.6684C23.9036 39.5971 23.9152 39.5212 23.9121 39.4453C23.9154 39.2895 23.8591 39.1386 23.7552 39.0241C23.6512 38.9097 23.5077 38.8407 23.3547 38.8315H22.7624C22.7083 38.8402 22.653 38.8361 22.6007 38.8198C22.5484 38.8034 22.5004 38.7751 22.4604 38.7371C22.4217 38.6971 22.3921 38.6487 22.3741 38.5956C22.356 38.5426 22.3498 38.4861 22.3559 38.4302C22.3496 38.0677 22.2705 37.7102 22.1236 37.3798C22.0921 37.3198 22.0757 37.2529 22.0757 37.185C22.0757 37.1171 22.0921 37.0502 22.1236 36.9903C22.1727 36.9392 22.2331 36.9007 22.2998 36.8782C22.3664 36.8556 22.4374 36.8495 22.5069 36.8604H24.2837C25.1418 36.8514 25.9703 36.5408 26.6287 35.9814C27.2871 35.422 27.7347 34.6483 27.8955 33.7917C27.9948 33.1326 27.9752 32.4607 27.8375 31.8088ZM13.9942 1.2275C14.25 1.23048 14.4947 1.33431 14.6767 1.51706C14.8587 1.69981 14.9638 1.94722 14.9698 2.20716C14.9674 2.39704 14.9102 2.582 14.8051 2.73906C14.7001 2.89612 14.552 3.01833 14.3791 3.09043C14.2062 3.16253 14.0163 3.18132 13.833 3.14453C13.6497 3.10774 13.4811 3.01697 13.3482 2.8835C13.2153 2.75003 13.1239 2.57976 13.0855 2.39392C13.0472 2.20807 13.0634 2.01488 13.1323 1.83835C13.2011 1.66182 13.3196 1.50976 13.4729 1.40115C13.6261 1.29253 13.8074 1.23214 13.9942 1.2275ZM9.34886 9.18263C9.74096 8.40311 9.9553 7.54388 9.97597 6.66865C10.0293 6.02799 10.3232 5.43275 10.7967 5.00642C11.2703 4.58008 11.8871 4.35537 12.5193 4.37888C13.5065 4.37888 14.4936 4.37888 15.4691 4.37888C16.096 4.34911 16.7099 4.56726 17.182 4.98758C17.654 5.4079 17.9475 5.99773 18.0009 6.63324C18.0325 7.51961 18.2503 8.38883 18.6396 9.18263L18.7906 9.4423H9.19788L9.34886 9.18263ZM9.94114 11.1301C9.93217 11.0697 9.93582 11.0079 9.95182 10.949C9.96782 10.89 9.99584 10.8351 10.034 10.7878C10.1318 10.707 10.2571 10.6688 10.3825 10.6816H17.5944C17.6592 10.6745 17.7247 10.6814 17.7868 10.7017C17.8488 10.722 17.9059 10.7554 17.9544 10.7997C17.9926 10.8469 18.0206 10.9018 18.0366 10.9608C18.0526 11.0197 18.0563 11.0814 18.0473 11.1419C18.0473 11.2718 18.0473 11.4134 18.0473 11.5668C18.1178 11.8702 18.0765 12.1894 17.9312 12.4639C17.864 12.5378 17.7806 12.5945 17.6878 12.6294C17.5949 12.6643 17.4953 12.6763 17.397 12.6645H17.0137H16.6537H10.4057C10.268 12.6748 10.1314 12.6327 10.0224 12.5465C9.98169 12.496 9.95226 12.4372 9.93621 12.374C9.92016 12.3108 9.91789 12.2448 9.92953 12.1806C9.95275 11.8383 9.95275 11.5196 9.94114 11.1301ZM9.94114 34.252C9.80024 34.3492 9.64813 34.4285 9.48821 34.488L8.89593 34.6887C8.24072 34.8522 7.62199 35.1405 7.07261 35.5385C6.98652 35.5958 6.88512 35.6247 6.78228 35.6211H3.98345C3.57718 35.659 3.1679 35.597 2.79018 35.4403C2.41245 35.2836 2.07735 35.0369 1.81316 34.7209C1.54897 34.405 1.36345 34.0291 1.27224 33.625C1.18103 33.2208 1.18683 32.8003 1.28913 32.3989C1.75366 29.4718 2.20659 26.5565 2.67113 23.6294L3.62344 17.5155C4.02604 14.9189 4.43638 12.3261 4.85446 9.73737C4.93263 9.10751 5.24132 8.53068 5.71907 8.12168C6.19683 7.71268 6.80862 7.50151 7.43265 7.53024H7.66491C7.80427 7.53024 7.94362 7.53024 8.07137 7.53024C8.15225 7.50766 8.2375 7.50668 8.31888 7.52736C8.40025 7.54803 8.47501 7.58967 8.53592 7.64827C8.57861 7.72794 8.60097 7.81722 8.60097 7.90794C8.60097 7.99866 8.57861 8.08793 8.53592 8.1676C8.27304 8.70858 7.90572 9.19027 7.45586 9.58396C7.35126 9.66922 7.27822 9.78803 7.24869 9.92096C7.21915 10.0539 7.23487 10.1931 7.29327 10.3157C7.34072 10.4354 7.42547 10.536 7.53454 10.6021C7.64361 10.6682 7.771 10.6961 7.89718 10.6816H8.31526C8.37764 10.6697 8.44176 10.6708 8.50368 10.685C8.56561 10.6993 8.624 10.7262 8.67527 10.7643C8.71972 10.8153 8.75304 10.8754 8.77306 10.9405C8.79307 11.0056 8.79934 11.0742 8.79142 11.1419C8.79142 11.6494 8.79142 12.1806 8.79142 12.8298C8.7853 13.0296 8.72935 13.2245 8.62883 13.3963V13.5025C7.08541 16.7178 5.79611 20.0528 4.77316 23.476C4.44698 24.557 4.22528 25.6678 4.1112 26.7926C4.00235 27.794 4.17604 28.8063 4.61199 29.7113C5.04794 30.6162 5.72815 31.3764 6.57325 31.9032C7.57544 32.6103 8.69169 33.1336 9.87146 33.4494H9.94114C10.0274 33.4483 10.1111 33.4786 10.1772 33.5349C10.2433 33.5912 10.2873 33.6698 10.3012 33.7563C10.3023 33.8691 10.2663 33.9792 10.199 34.069C10.1317 34.1587 10.0369 34.2231 9.92953 34.252H9.94114ZM13.9942 29.3184C13.5826 29.3082 13.1798 29.1952 12.8213 28.9894C12.4628 28.7836 12.1597 28.4912 11.9386 28.1381C11.7268 27.8287 11.591 27.4722 11.5425 27.0984C11.494 26.7247 11.5343 26.3446 11.6599 25.99C12.2241 24.5993 12.9122 23.264 13.7155 22.0006C13.7424 21.9432 13.7831 21.8937 13.8339 21.8565C13.8846 21.8194 13.9438 21.7959 14.0058 21.7882C14.0699 21.7946 14.1309 21.819 14.1822 21.8586C14.2334 21.8982 14.2729 21.9514 14.2962 22.0124C15.0832 23.2383 15.7595 24.5341 16.3169 25.8838C16.4654 26.2476 16.5219 26.6433 16.4813 27.035C16.4407 27.4267 16.3044 27.8019 16.0847 28.1263C15.8607 28.4819 15.5538 28.7758 15.1911 28.9817C14.8284 29.1876 14.4212 29.2992 14.0058 29.3066L13.9942 29.3184ZM15.8059 32.4698H15.4924H15.1904C15.106 32.4762 15.0211 32.4648 14.9412 32.4364C14.8613 32.4079 14.788 32.3631 14.7259 32.3045C14.6487 32.2018 14.5959 32.0822 14.5717 31.9553C14.5476 31.8283 14.5526 31.6974 14.5865 31.5727C14.604 31.4554 14.604 31.336 14.5865 31.2187C14.5611 31.1137 14.5575 31.0046 14.5758 30.8981C14.5941 30.7917 14.634 30.6903 14.693 30.6003C14.752 30.5104 14.8288 30.434 14.9184 30.3758C15.008 30.3177 15.1086 30.2791 15.2136 30.2626C15.6668 30.1126 16.0856 29.8711 16.4448 29.5527C16.804 29.2343 17.0962 28.8455 17.3041 28.4096C17.5208 27.9894 17.6502 27.5285 17.6841 27.0554C17.7181 26.5823 17.6559 26.1071 17.5015 25.6595C16.8936 24.0591 16.1147 22.5312 15.1788 21.1036C14.9582 20.7613 14.7491 20.419 14.5168 20.1003C14.4586 20.0129 14.381 19.9407 14.2902 19.8894C14.1994 19.8382 14.098 19.8093 13.9942 19.8052C13.8954 19.81 13.7992 19.8395 13.7141 19.8909C13.629 19.9424 13.5578 20.0143 13.5065 20.1003C12.3353 21.7644 11.3535 23.5582 10.5799 25.4471C10.3874 25.925 10.3002 26.4399 10.3243 26.9558C10.3483 27.4716 10.4831 27.9759 10.7192 28.4332C10.9515 28.9006 11.2786 29.3126 11.679 29.6422C12.0793 29.9718 12.5438 30.2114 13.0419 30.3452C13.1058 30.3524 13.1675 30.3727 13.2235 30.4048C13.2794 30.4369 13.3284 30.4801 13.3674 30.5319C13.4065 30.5838 13.4348 30.6431 13.4507 30.7063C13.4666 30.7696 13.4698 30.8355 13.46 30.9C13.46 31.1833 13.46 31.4901 13.46 31.7734V32.0212C13.4686 32.0709 13.4662 32.1218 13.4532 32.1704C13.4401 32.219 13.4167 32.2641 13.3845 32.3024C13.3523 32.3408 13.3122 32.3714 13.2671 32.3922C13.2219 32.4129 13.1728 32.4233 13.1232 32.4225C10.9924 32.6341 8.85951 32.0418 7.13068 30.7584C6.39309 30.2534 5.82887 29.5272 5.51661 28.681C5.20436 27.8347 5.15962 26.9105 5.38867 26.0372C6.03339 23.0804 6.97112 20.1976 8.18751 17.4329C8.46624 16.7719 8.75657 16.1228 9.03529 15.4854C9.23272 15.0605 9.43015 14.6238 9.61596 14.1989C9.65243 14.0839 9.72638 13.985 9.82561 13.9185C9.92485 13.8519 10.0434 13.8218 10.1618 13.833H17.9312C18.0436 13.8205 18.1571 13.8447 18.2552 13.902C18.3533 13.9592 18.431 14.0467 18.477 14.1517C20.0312 17.4151 21.3207 20.8019 22.3327 24.2785C22.568 25.1203 22.7312 25.9812 22.8205 26.8516C22.9174 27.571 22.8181 28.3036 22.5334 28.9697C22.2488 29.6357 21.7897 30.2095 21.2062 30.6285C19.6862 31.8974 17.7596 32.5529 15.7943 32.4698H15.8059ZM26.258 34.6887C26.0252 34.9712 25.7361 35.2004 25.4098 35.3611C25.0836 35.5218 24.7275 35.6104 24.365 35.6211H22.0423C21.4344 35.6576 20.8324 35.4828 20.3352 35.1254C20.0104 34.9188 19.6528 34.771 19.2783 34.6887C19.0775 34.6422 18.8797 34.5831 18.6861 34.5117H18.5583L18.3841 34.4526C18.2447 34.3936 17.8267 34.2166 17.8499 33.8271C17.8731 33.4376 18.1518 33.4848 18.2912 33.4612H18.4073C19.7583 33.0924 21.0171 32.4367 22.1004 31.5373C22.8225 30.9472 23.3779 30.1733 23.7104 29.2943C24.0429 28.4154 24.1405 27.4626 23.9934 26.5329C23.49 23.5231 22.6079 20.5917 21.3688 17.8106C20.8113 16.406 20.2074 15.0133 19.5571 13.6559C19.3661 13.2941 19.2777 12.8855 19.3016 12.4757C19.3016 12.0271 19.3016 11.5668 19.3016 11.1891C19.2919 11.1195 19.2973 11.0486 19.3174 10.9814C19.3374 10.9141 19.3717 10.8521 19.4177 10.7997C19.4661 10.7605 19.5225 10.7328 19.5828 10.7185C19.643 10.7043 19.7056 10.7037 19.7661 10.717H20.2423C20.3611 10.7181 20.4776 10.6836 20.5772 10.6177C20.6769 10.5518 20.7551 10.4575 20.8022 10.3466C20.8494 10.2357 20.8632 10.1132 20.8421 9.9943C20.821 9.87543 20.7659 9.76553 20.6836 9.67837C20.5928 9.57039 20.4958 9.46791 20.3932 9.37148C20.1836 9.1731 19.9966 8.95139 19.8358 8.71053C19.8089 8.66066 19.7778 8.61328 19.7429 8.5689C19.5803 8.33284 19.3829 8.03779 19.5106 7.74272C19.6384 7.44764 19.9519 7.51846 20.2074 7.55387H20.4513C22.1469 7.55387 22.9947 8.38004 23.2966 10.2921C23.6682 12.6527 25.6193 24.7979 25.6193 24.7979C26.0258 27.4063 26.4555 30.1092 26.8503 32.7648C26.8873 33.1124 26.8505 33.4641 26.7423 33.796C26.6341 34.1279 26.4571 34.4323 26.2232 34.6887H26.258Z" fill="#4D4D4D"></path>
    <path d="M16.073 28.1617C15.849 28.5173 15.5421 28.8112 15.1794 29.0171C14.8167 29.223 14.4095 29.3346 13.9942 29.342C13.5825 29.3318 13.1797 29.2188 12.8212 29.013C12.4627 28.8071 12.1596 28.5148 11.9386 28.1617C11.7267 27.8523 11.5909 27.4958 11.5424 27.1221C11.4939 26.7483 11.5342 26.3682 11.6599 26.0136C12.2241 24.6229 12.9121 23.2876 13.7154 22.0242C13.7423 21.9668 13.783 21.9173 13.8338 21.8801C13.8845 21.843 13.9437 21.8195 14.0058 21.8117C14.0698 21.8182 14.1309 21.8426 14.1821 21.8822C14.2334 21.9218 14.2728 21.975 14.2961 22.036C15.0831 23.2619 15.7594 24.5576 16.3168 25.9073C16.4657 26.2737 16.5214 26.6723 16.4787 27.0662C16.4361 27.4602 16.2966 27.837 16.073 28.1617Z" fill="#F6ADC6"></path>
  </g>
  <defs>
    <clipPath id="clip0_183_73">
      <rect width="28" height="40" fill="white"></rect>
    </clipPath>
  </defs>
</svg>
