<?xml version="1.0" encoding="UTF-8"?>
<svg xmlns="http://www.w3.org/2000/svg" width="56" height="45" viewBox="0 0 56 45" fill="none">
  <g clip-path="url(#clip0_183_76)">
    <path d="M52.0966 25.3604C51.8438 25.2601 51.6195 25.0984 51.4435 24.8896C51.2676 24.6808 51.1455 24.4314 51.0881 24.1636C50.7819 22.8808 50.0719 21.7327 49.0645 20.8912C48.0571 20.0497 46.8064 19.5602 45.5 19.496H45.1678V19.1609C45.3869 17.7435 45.494 16.3108 45.4881 14.8763C45.4881 6.49866 42.0475 0.0119743 37.6576 0.0119743C33.2678 0.0119743 29.8271 6.54653 29.8271 14.8763C29.8271 20.9441 31.7136 26.3298 34.6322 28.6037L34.8102 28.7473L34.7271 28.9508C34.2442 30.2624 34.2235 31.7016 34.6686 33.0268C35.1137 34.3519 35.9974 35.4821 37.1712 36.2274L37.3136 36.3112V41.3498L36.8864 41.1224C36.7916 41.0777 36.7075 41.0129 36.6399 40.9323C36.5723 40.8517 36.5229 40.7573 36.4949 40.6556C36.3129 39.7247 35.8526 38.8724 35.176 38.2134C34.4993 37.5544 33.6388 37.1202 32.7102 36.9694C31.8318 36.7577 30.9108 36.8154 30.0653 37.1353C29.2197 37.4551 28.4881 38.0225 27.9644 38.7646C27.8546 38.8979 27.708 38.9953 27.5432 39.0443C27.3784 39.0933 27.2029 39.0918 27.039 39.0399C26.4821 38.8317 25.8892 38.7394 25.2959 38.7685C24.7027 38.7976 24.1215 38.9474 23.5872 39.2091C23.0529 39.4707 22.5766 39.8387 22.1871 40.2909C21.7975 40.7432 21.5026 41.2702 21.3203 41.8404C21.2546 42.0131 21.1477 42.1669 21.0091 42.2879C20.8704 42.409 20.7043 42.4937 20.5254 42.5346C20.3431 42.5666 20.1558 42.5551 19.9787 42.5011C19.8015 42.4471 19.6393 42.352 19.5051 42.2234C19.0668 41.7281 18.5077 41.357 17.8834 41.1471C17.259 40.9371 16.591 40.8956 15.9458 41.0266C15.839 41.0575 15.7265 41.0628 15.6173 41.042C15.5081 41.0213 15.4052 40.975 15.3169 40.9069C15.2416 40.8217 15.1864 40.7203 15.1556 40.6104C15.1248 40.5005 15.1191 40.385 15.139 40.2726C15.2036 39.4761 15.2036 38.6755 15.139 37.879C15.112 37.7501 15.1106 37.617 15.1351 37.4876C15.1595 37.3581 15.2092 37.2349 15.2814 37.125C15.361 37.0362 15.458 36.9649 15.5662 36.9154C15.6743 36.866 15.7914 36.8396 15.9102 36.8378C17.3553 36.6802 18.7137 36.0642 19.7899 35.0784C19.9606 34.8992 20.1677 34.7593 20.3971 34.6684C20.6264 34.5775 20.8726 34.5378 21.1187 34.5519C22.4496 34.5846 23.7674 34.2795 24.9511 33.6647C26.1348 33.0499 27.1465 32.1451 27.8932 31.0332C28.6175 29.949 29.0801 28.7088 29.2441 27.4119C29.4081 26.115 29.2689 24.7973 28.8377 23.5644C28.4064 22.3315 27.6951 21.2174 26.7606 20.3115C25.8261 19.4055 24.6944 18.7328 23.4559 18.3471C23.1593 18.2633 22.7797 18.1556 22.7085 17.5931C22.5439 16.4219 22.1353 15.299 21.5095 14.2986C20.8838 13.2981 20.0551 12.4427 19.078 11.7886C18.118 11.1502 17.033 10.7279 15.8968 10.5503C14.7605 10.3727 13.5997 10.444 12.4932 10.7593C10.9553 11.1414 9.56708 11.9817 8.50907 13.1706C7.45105 14.3595 6.77226 15.8421 6.56101 17.4255C6.54427 17.6594 6.45151 17.8812 6.29706 18.0565C6.1426 18.2318 5.93509 18.3507 5.70677 18.3949C4.96804 18.5947 4.26948 18.9227 3.64237 19.3643C3.04915 19.7593 3.26273 20.1064 3.32205 20.2141C3.38805 20.3257 3.49436 20.4072 3.61866 20.4415C3.72015 20.4585 3.82402 20.4546 3.92396 20.4299C4.02389 20.4052 4.1178 20.3603 4.2 20.2979C4.95231 19.7822 5.79955 19.4241 6.69153 19.2447C7.45086 19.0891 7.48643 19.0173 7.52202 18.3471C7.57807 17.3909 7.82321 16.4557 8.24294 15.5966C8.66268 14.7375 9.24858 13.9717 9.96612 13.3444C10.9564 12.4736 12.1662 11.8961 13.4617 11.676C14.7572 11.4559 16.0878 11.6018 17.3062 12.0973C18.5246 12.5929 19.5833 13.419 20.365 14.484C21.1468 15.549 21.6212 16.8115 21.7356 18.1316C21.8305 19.125 21.8305 19.125 22.7204 19.3284C24.3616 19.8112 25.7758 20.8736 26.7044 22.3215C27.6331 23.7694 28.0142 25.5061 27.7781 27.2141C27.542 28.922 26.7044 30.4872 25.4185 31.6236C24.1325 32.76 22.4841 33.3916 20.7746 33.4029C20.56 33.3706 20.3409 33.3896 20.1348 33.4581C19.9288 33.5267 19.7415 33.6431 19.5881 33.7979C18.6279 34.6801 17.4663 35.3091 16.2068 35.629C16.0782 35.6847 15.9377 35.7063 15.7985 35.6916C15.6593 35.6769 15.5262 35.6265 15.4119 35.5452C15.1034 35.258 15.1627 34.7194 15.4119 33.2832C15.7552 31.0973 15.6989 28.8663 15.2458 26.7008C15.1543 26.3893 15.1676 26.0561 15.2835 25.7531C15.3994 25.45 15.6114 25.1941 15.8864 25.0253C16.835 24.2727 17.6913 23.409 18.4373 22.4521C18.5456 22.3226 18.6604 22.1987 18.7814 22.0811L18.9712 21.8896C19.1966 21.6503 19.3983 21.3032 19.0898 20.992C18.9949 20.8963 18.7102 20.621 18.2356 21.0997L16.2898 23.1463L16.2068 23.2301C16.064 23.4105 15.8621 23.5335 15.6373 23.5771H15.2932V21.8298C15.2932 21.0518 15.2932 20.2739 15.2932 19.496C15.3013 19.3986 15.2873 19.3005 15.2524 19.2093C15.2175 19.1181 15.1624 19.0361 15.0915 18.9694C15.0283 18.925 14.9566 18.8946 14.8809 18.8802C14.8053 18.8657 14.7274 18.8676 14.6525 18.8856C14.5339 18.8856 14.2136 18.9574 14.2136 19.6396C14.2136 21.4827 14.2136 23.3258 14.2136 25.1689V27.9455L14.1543 28.867H13.8339C13.7326 28.8577 13.6369 28.8157 13.561 28.7473L11.4136 26.6051C10.8915 26.1024 10.6305 26.3418 10.5119 26.4495C10.4629 26.4935 10.423 26.5467 10.3945 26.6063C10.366 26.6659 10.3494 26.7305 10.3458 26.7966C10.3763 27.0288 10.4903 27.2418 10.6661 27.395L11.4136 28.1489C12.2085 28.9508 12.9915 29.7407 13.7865 30.5425C13.9212 30.6817 14.0273 30.8464 14.0986 31.0272C14.1698 31.208 14.2049 31.4012 14.2017 31.5957C14.2017 32.613 14.2017 33.7859 14.2017 34.9109C14.2169 35.0336 14.2033 35.1581 14.1621 35.2745C14.1209 35.3909 14.0532 35.4959 13.9644 35.5811C13.7034 35.7846 13.3831 35.6888 12.8373 35.5811L12.5763 35.4973C11.4979 35.1705 10.5213 34.5687 9.7407 33.75C9.62712 33.6347 9.48911 33.5467 9.33706 33.4928C9.18501 33.439 9.02284 33.4205 8.86271 33.4388C7.80799 33.5432 6.74357 33.4035 5.75051 33.0301C4.75744 32.6568 3.86195 32.0598 3.13221 31.2846C2.37635 30.5029 1.80717 29.5577 1.46794 28.5207C1.12872 27.4838 1.02839 26.3825 1.17459 25.3005C1.28453 24.5542 1.49197 23.8258 1.79153 23.1343C1.8384 23.0417 1.86282 22.9391 1.86282 22.8351C1.86282 22.7311 1.8384 22.6286 1.79153 22.5359C1.75356 22.4729 1.7017 22.4196 1.63997 22.3802C1.57823 22.3407 1.50829 22.3162 1.43561 22.3085C1.19832 22.3085 0.984742 22.3085 0.783047 22.7274C0.538887 23.2768 0.352006 23.8504 0.225418 24.4388C0.166096 24.6782 0.10677 24.9295 0.0355835 25.1689V27.2753C0.126625 27.5013 0.186534 27.7389 0.213579 27.9814C0.213579 28.113 0.213551 28.2447 0.296602 28.3763C0.755194 30.1406 1.78317 31.7007 3.21828 32.8103C4.65338 33.9199 6.41393 34.5158 8.22205 34.504C8.65682 34.5065 9.07685 34.6632 9.40849 34.9468C10.484 35.911 11.8165 36.5352 13.2407 36.742C13.3875 36.7352 13.5338 36.7642 13.6671 36.8266C13.8004 36.889 13.9169 36.9829 14.0065 37.1004C14.0962 37.2178 14.1565 37.3554 14.1822 37.5014C14.2079 37.6473 14.1983 37.7974 14.1543 37.9388C14.1323 38.3375 14.1323 38.737 14.1543 39.1357V40.2248L13.5848 39.9495C12.9219 39.5041 12.1373 39.2796 11.3413 39.3075C10.5454 39.3354 9.7781 39.6144 9.14748 40.1051C8.21571 40.634 7.50393 41.4837 7.14239 42.4987C7.08734 42.6644 6.9867 42.8108 6.85226 42.921C6.71782 43.0312 6.55509 43.1006 6.38305 43.121C5.77257 43.2329 5.20072 43.5007 4.72204 43.8989L4.63898 43.9707H2.90679C2.76519 43.9707 2.62938 44.0275 2.52925 44.1285C2.42913 44.2295 2.37287 44.3665 2.37287 44.5093C2.37284 44.6533 2.42873 44.7915 2.52853 44.8944C2.62833 44.9973 2.76411 45.0567 2.90679 45.0598H49.5932C49.738 45.0598 49.8768 45.0018 49.9791 44.8986C50.0815 44.7953 50.139 44.6553 50.139 44.5093C50.139 44.4376 50.1248 44.3665 50.0972 44.3004C50.0697 44.2343 50.0293 44.1744 49.9784 44.1242C49.9276 44.074 49.8673 44.0346 49.8012 44.0082C49.735 43.9819 49.6643 43.9691 49.5932 43.9707H45.7136V42.3311C45.7136 41.4455 45.7136 40.5598 45.7136 39.6742C45.7153 39.476 45.7846 39.2845 45.91 39.1319C46.0353 38.9793 46.209 38.875 46.4017 38.8364C47.4062 38.6566 48.3421 38.2011 49.1068 37.52C49.3606 37.3138 49.6839 37.2151 50.0085 37.2447C51.4173 37.2248 52.7753 36.7106 53.849 35.7903C54.9228 34.8701 55.6453 33.6014 55.8924 32.2021C56.1395 30.8029 55.8957 29.3605 55.203 28.1229C54.5104 26.8852 53.412 25.9296 52.0966 25.4202V25.3604ZM18.6627 43.8271L18.5678 43.9109H7.98475L8.06781 43.5519C8.06781 43.492 8.06781 43.4322 8.06781 43.3604V43.1928C8.11202 42.5762 8.34451 41.9885 8.7333 41.5106C9.12209 41.0327 9.64808 40.688 10.239 40.524C10.8184 40.3544 11.4327 40.3473 12.0159 40.5033C12.5991 40.6593 13.1291 40.9727 13.5492 41.4096C13.8819 41.7042 14.2785 41.9161 14.707 42.0283C15.1355 42.1405 15.5841 42.15 16.0169 42.0559C16.207 42.0085 16.4027 41.9884 16.5983 41.996C17.0962 41.9853 17.5878 42.1093 18.022 42.3551C18.3356 42.5078 18.6022 42.7436 18.7932 43.0372C18.8671 43.1633 18.8945 43.3117 18.8707 43.4562C18.8468 43.6007 18.7731 43.732 18.6627 43.8271ZM35.178 27.4189C32.7102 25.3005 31.061 20.238 31.061 14.8165C31.061 7.40825 34.1102 1.14892 37.7051 1.14892C41.3 1.14892 44.3492 7.40825 44.3492 14.8165C44.351 16.3451 44.22 17.8708 43.9576 19.3763V19.5798H43.7678C42.6377 19.8521 41.6101 20.4493 40.8099 21.299C40.0096 22.1488 39.4709 23.2146 39.2593 24.367C39.2397 24.4812 39.1995 24.5907 39.1407 24.6902L38.5831 25.7673V16.48C38.5831 16.3213 38.5206 16.1691 38.4093 16.0569C38.2981 15.9447 38.1472 15.8816 37.9898 15.8816C37.8325 15.8816 37.6816 15.9447 37.5703 16.0569C37.4591 16.1691 37.3966 16.3213 37.3966 16.48V25.7314L37.2661 25.8271C36.6395 26.2231 36.0889 26.7299 35.6407 27.3232L35.4508 27.5865L35.178 27.4189ZM20.5136 43.863L21.9491 43.2886C22.0797 43.2287 22.2102 43.1449 22.2695 42.7021C22.3446 42.145 22.5565 41.6156 22.8859 41.1621C23.2154 40.7085 23.6519 40.3452 24.1559 40.1051C24.657 39.8646 25.2104 39.7561 25.7643 39.7895C26.3182 39.823 26.8547 39.9975 27.3237 40.2966C27.5308 40.4587 27.7853 40.5471 28.0475 40.5479C28.178 40.5479 28.3203 40.3325 28.4864 39.9974C28.8475 39.2447 29.4477 38.6356 30.1916 38.2669C30.9355 37.8982 31.7803 37.7911 32.5915 37.9628C33.4157 38.1386 34.1578 38.5877 34.6997 39.2384C35.2415 39.889 35.5519 40.7039 35.5814 41.5532C35.5814 42.1516 35.7712 42.2832 36.4 42.2593C36.9111 42.2034 37.4279 42.2783 37.9027 42.477C38.3776 42.6757 38.7952 42.9919 39.1169 43.3963L39.4729 43.875L20.5136 43.863ZM44.6339 43.863H40.5644L40.4932 43.6715C40.1473 42.7987 39.5149 42.072 38.7017 41.613L38.5475 41.5293V36.8138L38.9271 36.9215C39.4264 37.0575 39.9405 37.1299 40.4576 37.137C40.5939 37.1128 40.734 37.1219 40.8662 37.1635C40.9983 37.2052 41.1186 37.2781 41.217 37.3763C41.5268 37.7641 41.9117 38.0839 42.3483 38.3165C42.7848 38.549 43.2638 38.6893 43.7559 38.7287C44.2068 38.7287 44.6339 38.8245 44.6339 39.4229V43.863ZM51.2542 35.8564C50.6709 36.0365 50.0586 36.1016 49.4509 36.0479C49.304 36.0236 49.1534 36.0384 49.014 36.0909C48.8745 36.1434 48.7511 36.2317 48.6559 36.3471C48.1335 36.8955 47.4858 37.3064 46.7695 37.5439C46.5863 37.6129 46.3947 37.6572 46.2 37.6755C46.1023 37.679 46.0063 37.6495 45.9271 37.5918C45.7136 37.4362 45.7136 37.1729 45.7136 36.8019V26.5572C45.7195 26.4535 45.7195 26.3496 45.7136 26.246C45.7136 25.8271 45.4763 25.6117 45.1915 25.6237C45.114 25.6212 45.0369 25.6358 44.9655 25.6665C44.8942 25.6972 44.8304 25.7432 44.7784 25.8012C44.7265 25.8593 44.6877 25.9282 44.6648 26.0029C44.6419 26.0776 44.6354 26.1565 44.6458 26.2341C44.6458 27.2513 44.6458 28.2686 44.6458 29.2859V31.117L44.5271 31.2008L44.3492 31.3324L44.1475 31.4521L43.3407 30.6024C42.9017 30.1356 42.4627 29.6689 42.0119 29.2261C41.9578 29.165 41.8922 29.1155 41.8188 29.0806C41.7454 29.0456 41.6658 29.0259 41.5848 29.0226C41.5134 29.0222 41.4427 29.0369 41.3773 29.0657C41.3119 29.0946 41.2532 29.137 41.2051 29.1902C41.1133 29.3078 41.0695 29.4563 41.0827 29.6054C41.096 29.7545 41.1652 29.8928 41.2763 29.992C41.3254 30.0574 41.3811 30.1176 41.4424 30.1715L42.4034 31.1409C43.0204 31.7633 43.5898 32.3976 44.2661 33.008C44.3951 33.1252 44.497 33.2696 44.5647 33.4309C44.6323 33.5922 44.6641 33.7665 44.6576 33.9415C44.6576 34.8271 44.6576 35.8564 44.6576 36.8856C44.6805 37.0093 44.6718 37.1368 44.6323 37.2561C44.5929 37.3754 44.524 37.4827 44.4322 37.5678C44.3193 37.6296 44.1929 37.662 44.0644 37.662C43.936 37.662 43.8095 37.6296 43.6966 37.5678C43.0456 37.3804 42.4479 37.04 41.9526 36.5745C41.7752 36.3878 41.558 36.2445 41.3174 36.1553C41.0769 36.0661 40.8193 36.0335 40.5644 36.0598C39.9459 36.0784 39.3296 35.9768 38.7491 35.7606C38.0448 35.4981 37.4024 35.0905 36.8627 34.5638C36.1558 33.8174 35.6957 32.8683 35.5458 31.8471C35.4487 31.1047 35.5094 30.3499 35.7237 29.633C35.9049 29.0123 36.2075 28.4344 36.6136 27.9335C37.2475 27.1181 38.1189 26.5238 39.1051 26.2341C39.2801 26.1815 39.4584 26.1415 39.639 26.1144C40.0068 26.0426 40.161 25.8511 40.1966 25.4322C40.2219 24.5012 40.5099 23.5968 41.0268 22.8251C41.5438 22.0535 42.2683 21.4466 43.1152 21.0758C43.2564 21.0005 43.4032 20.9365 43.5543 20.8843C44.0836 20.6925 44.641 20.5914 45.2034 20.5851C46.4712 20.5857 47.6911 21.0737 48.6147 21.9498C49.5383 22.8259 50.0961 24.0241 50.1746 25.3005C50.1746 25.9109 50.3051 26.0067 50.9695 26.1622C52.0632 26.394 53.0478 26.9899 53.7653 27.8541C54.4828 28.7183 54.8916 29.8008 54.9258 30.9275C54.96 32.0543 54.6178 33.1599 53.954 34.0669C53.2903 34.9738 52.3437 35.6293 51.2661 35.9282L51.2542 35.8564Z" fill="#4D4D4D"></path>
    <path d="M52.0966 25.3604C51.8438 25.2601 51.6195 25.0984 51.4435 24.8896C51.2676 24.6808 51.1455 24.4314 51.0881 24.1636C50.7819 22.8808 50.0719 21.7327 49.0645 20.8912C48.0571 20.0497 46.8064 19.5602 45.5 19.496H45.1678V19.1609C45.3869 17.7435 45.494 16.3108 45.4881 14.8763C45.4881 6.49866 42.0475 0.0119743 37.6576 0.0119743C33.2678 0.0119743 29.8271 6.54653 29.8271 14.8763C29.8271 20.9441 31.7136 26.3298 34.6322 28.6037L34.8102 28.7473L34.7271 28.9508C34.2442 30.2624 34.2235 31.7016 34.6686 33.0268C35.1137 34.3519 35.9974 35.4821 37.1712 36.2274L37.3136 36.3112V41.3498L36.8864 41.1224C36.7916 41.0777 36.7075 41.0129 36.6399 40.9323C36.5723 40.8517 36.5229 40.7573 36.4949 40.6556C36.3129 39.7247 35.8526 38.8724 35.176 38.2134C34.4993 37.5544 33.6388 37.1202 32.7102 36.9694C31.8318 36.7577 30.9108 36.8154 30.0653 37.1353C29.2197 37.4551 28.4881 38.0225 27.9644 38.7646C27.8546 38.8979 27.708 38.9953 27.5432 39.0443C27.3784 39.0933 27.2029 39.0918 27.039 39.0399C26.4821 38.8317 25.8892 38.7394 25.2959 38.7685C24.7027 38.7976 24.1215 38.9474 23.5872 39.2091C23.0529 39.4707 22.5766 39.8387 22.1871 40.2909C21.7975 40.7432 21.5026 41.2702 21.3203 41.8404C21.2546 42.0131 21.1477 42.1669 21.0091 42.2879C20.8704 42.409 20.7043 42.4937 20.5254 42.5346C20.3431 42.5666 20.1558 42.5551 19.9787 42.5011C19.8015 42.4471 19.6393 42.352 19.5051 42.2234C19.0668 41.7281 18.5077 41.357 17.8834 41.1471C17.259 40.9371 16.591 40.8956 15.9458 41.0266C15.839 41.0575 15.7265 41.0628 15.6173 41.042C15.5081 41.0213 15.4052 40.975 15.3169 40.9069C15.2416 40.8217 15.1864 40.7203 15.1556 40.6104C15.1248 40.5005 15.1191 40.385 15.139 40.2726C15.2036 39.4761 15.2036 38.6755 15.139 37.879C15.112 37.7501 15.1106 37.617 15.1351 37.4876C15.1595 37.3581 15.2092 37.2349 15.2814 37.125C15.361 37.0362 15.458 36.9649 15.5662 36.9154C15.6743 36.866 15.7914 36.8396 15.9102 36.8378C17.3553 36.6802 18.7137 36.0642 19.7899 35.0784C19.9606 34.8992 20.1677 34.7593 20.3971 34.6684C20.6264 34.5775 20.8726 34.5378 21.1187 34.5519C22.4496 34.5846 23.7674 34.2795 24.9511 33.6647C26.1348 33.0499 27.1465 32.1451 27.8932 31.0332C28.6175 29.949 29.0801 28.7088 29.2441 27.4119C29.4081 26.115 29.2689 24.7973 28.8377 23.5644C28.4064 22.3315 27.6951 21.2174 26.7606 20.3115C25.8261 19.4055 24.6944 18.7328 23.4559 18.3471C23.1593 18.2633 22.7797 18.1556 22.7085 17.5931C22.5439 16.4219 22.1353 15.299 21.5095 14.2986C20.8838 13.2981 20.0551 12.4427 19.078 11.7886C18.118 11.1502 17.033 10.7279 15.8968 10.5503C14.7605 10.3727 13.5997 10.444 12.4932 10.7593C10.9553 11.1414 9.56708 11.9817 8.50907 13.1706C7.45105 14.3595 6.77226 15.8421 6.56101 17.4255C6.54427 17.6594 6.45151 17.8812 6.29706 18.0565C6.1426 18.2318 5.93509 18.3507 5.70677 18.3949C4.96804 18.5947 4.26948 18.9227 3.64237 19.3643C3.04915 19.7593 3.26273 20.1064 3.32205 20.2141C3.38805 20.3257 3.49436 20.4072 3.61866 20.4415C3.72015 20.4585 3.82402 20.4546 3.92396 20.4299C4.02389 20.4052 4.1178 20.3603 4.2 20.2979C4.95231 19.7822 5.79955 19.4241 6.69153 19.2447C7.45086 19.0891 7.48643 19.0173 7.52202 18.3471C7.57807 17.3909 7.82321 16.4557 8.24294 15.5966C8.66268 14.7375 9.24858 13.9717 9.96612 13.3444C10.9564 12.4736 12.1662 11.8961 13.4617 11.676C14.7572 11.4559 16.0878 11.6018 17.3062 12.0973C18.5246 12.5929 19.5833 13.419 20.365 14.484C21.1468 15.549 21.6212 16.8115 21.7356 18.1316C21.8305 19.125 21.8305 19.125 22.7204 19.3284C24.3616 19.8112 25.7758 20.8736 26.7044 22.3215C27.6331 23.7694 28.0142 25.5061 27.7781 27.2141C27.542 28.922 26.7044 30.4872 25.4185 31.6236C24.1325 32.76 22.4841 33.3916 20.7746 33.4029C20.56 33.3706 20.3409 33.3896 20.1348 33.4581C19.9288 33.5267 19.7415 33.6431 19.5881 33.7979C18.6279 34.6801 17.4663 35.3091 16.2068 35.629C16.0782 35.6847 15.9377 35.7063 15.7985 35.6916C15.6593 35.6769 15.5262 35.6265 15.4119 35.5452C15.1034 35.258 15.1627 34.7194 15.4119 33.2832C15.7552 31.0973 15.6989 28.8663 15.2458 26.7008C15.1543 26.3893 15.1676 26.0561 15.2835 25.7531C15.3994 25.45 15.6114 25.1941 15.8864 25.0253C16.835 24.2727 17.6913 23.409 18.4373 22.4521C18.5456 22.3226 18.6604 22.1987 18.7814 22.0811L18.9712 21.8896C19.1966 21.6503 19.3983 21.3032 19.0898 20.992C18.9949 20.8963 18.7102 20.621 18.2356 21.0997L16.2898 23.1463L16.2068 23.2301C16.064 23.4105 15.8621 23.5335 15.6373 23.5771H15.2932V21.8298C15.2932 21.0518 15.2932 20.2739 15.2932 19.496C15.3013 19.3986 15.2873 19.3005 15.2524 19.2093C15.2175 19.1181 15.1624 19.0361 15.0915 18.9694C15.0283 18.925 14.9566 18.8946 14.8809 18.8802C14.8053 18.8657 14.7274 18.8676 14.6525 18.8856C14.5339 18.8856 14.2136 18.9574 14.2136 19.6396C14.2136 21.4827 14.2136 23.3258 14.2136 25.1689V27.9455L14.1543 28.867H13.8339C13.7326 28.8577 13.6369 28.8157 13.561 28.7473L11.4136 26.6051C10.8915 26.1024 10.6305 26.3418 10.5119 26.4495C10.4629 26.4935 10.423 26.5467 10.3945 26.6063C10.366 26.6659 10.3494 26.7305 10.3458 26.7966C10.3763 27.0288 10.4903 27.2418 10.6661 27.395L11.4136 28.1489C12.2085 28.9508 12.9915 29.7407 13.7865 30.5425C13.9212 30.6817 14.0273 30.8464 14.0986 31.0272C14.1698 31.208 14.2049 31.4012 14.2017 31.5957C14.2017 32.613 14.2017 33.7859 14.2017 34.9109C14.2169 35.0336 14.2033 35.1581 14.1621 35.2745C14.1209 35.3909 14.0532 35.4959 13.9644 35.5811C13.7034 35.7846 13.3831 35.6888 12.8373 35.5811L12.5763 35.4973C11.4979 35.1705 10.5213 34.5687 9.7407 33.75C9.62712 33.6347 9.48911 33.5467 9.33706 33.4928C9.18501 33.439 9.02284 33.4205 8.86271 33.4388C7.80799 33.5432 6.74357 33.4035 5.75051 33.0301C4.75744 32.6568 3.86195 32.0598 3.13221 31.2846C2.37635 30.5029 1.80717 29.5577 1.46794 28.5207C1.12872 27.4838 1.02839 26.3825 1.17459 25.3005C1.28453 24.5542 1.49197 23.8258 1.79153 23.1343C1.8384 23.0417 1.86282 22.9391 1.86282 22.8351C1.86282 22.7311 1.8384 22.6286 1.79153 22.5359C1.75356 22.4729 1.7017 22.4196 1.63997 22.3802C1.57823 22.3407 1.50829 22.3162 1.43561 22.3085C1.19832 22.3085 0.984742 22.3085 0.783047 22.7274C0.538887 23.2768 0.352006 23.8504 0.225418 24.4388C0.166096 24.6782 0.10677 24.9295 0.0355835 25.1689V27.2753C0.126625 27.5013 0.186534 27.7389 0.213579 27.9814C0.213579 28.113 0.213551 28.2447 0.296602 28.3763C0.755194 30.1406 1.78317 31.7007 3.21828 32.8103C4.65338 33.9199 6.41393 34.5158 8.22205 34.504C8.65682 34.5065 9.07685 34.6632 9.40849 34.9468C10.484 35.911 11.8165 36.5352 13.2407 36.742C13.3875 36.7352 13.5338 36.7642 13.6671 36.8266C13.8004 36.889 13.9169 36.9829 14.0065 37.1004C14.0962 37.2178 14.1565 37.3554 14.1822 37.5014C14.2079 37.6473 14.1983 37.7974 14.1543 37.9388C14.1323 38.3375 14.1323 38.737 14.1543 39.1357V40.2248L13.5848 39.9495C12.9219 39.5041 12.1373 39.2796 11.3413 39.3075C10.5454 39.3354 9.7781 39.6144 9.14748 40.1051C8.21571 40.634 7.50393 41.4837 7.14239 42.4987C7.08734 42.6644 6.9867 42.8108 6.85226 42.921C6.71782 43.0312 6.55509 43.1006 6.38305 43.121C5.77257 43.2329 5.20072 43.5007 4.72204 43.8989L4.63898 43.9707H2.90679C2.76519 43.9707 2.62938 44.0275 2.52925 44.1285C2.42913 44.2295 2.37287 44.3665 2.37287 44.5093C2.37284 44.6533 2.42873 44.7915 2.52853 44.8944C2.62833 44.9973 2.76411 45.0567 2.90679 45.0598H49.5932C49.738 45.0598 49.8768 45.0018 49.9791 44.8986C50.0815 44.7953 50.139 44.6553 50.139 44.5093C50.139 44.4376 50.1248 44.3665 50.0972 44.3004C50.0697 44.2343 50.0293 44.1744 49.9784 44.1242C49.9276 44.074 49.8673 44.0346 49.8012 44.0082C49.735 43.9819 49.6643 43.9691 49.5932 43.9707H45.7136V42.3311C45.7136 41.4455 45.7136 40.5598 45.7136 39.6742C45.7153 39.476 45.7846 39.2845 45.91 39.1319C46.0353 38.9793 46.209 38.875 46.4017 38.8364C47.4062 38.6566 48.3421 38.2011 49.1068 37.52C49.3606 37.3138 49.6839 37.2151 50.0085 37.2447C51.4173 37.2248 52.7753 36.7106 53.849 35.7903C54.9228 34.8701 55.6453 33.6014 55.8924 32.2021C56.1395 30.8029 55.8957 29.3605 55.203 28.1229C54.5104 26.8852 53.412 25.9296 52.0966 25.4202V25.3604ZM18.6627 43.8271L18.5678 43.9109H7.98475L8.06781 43.5519C8.06781 43.492 8.06781 43.4322 8.06781 43.3604V43.1928C8.11202 42.5762 8.34451 41.9885 8.7333 41.5106C9.12209 41.0327 9.64808 40.688 10.239 40.524C10.8184 40.3544 11.4327 40.3473 12.0159 40.5033C12.5991 40.6593 13.1291 40.9727 13.5492 41.4096C13.8819 41.7042 14.2785 41.9161 14.707 42.0283C15.1355 42.1405 15.5841 42.15 16.0169 42.0559C16.207 42.0085 16.4027 41.9884 16.5983 41.996C17.0962 41.9853 17.5878 42.1093 18.022 42.3551C18.3356 42.5078 18.6022 42.7436 18.7932 43.0372C18.8671 43.1633 18.8945 43.3117 18.8707 43.4562C18.8468 43.6007 18.7731 43.732 18.6627 43.8271ZM35.178 27.4189C32.7102 25.3005 31.061 20.238 31.061 14.8165C31.061 7.40825 34.1102 1.14892 37.7051 1.14892C41.3 1.14892 44.3492 7.40825 44.3492 14.8165C44.351 16.3451 44.22 17.8708 43.9576 19.3763V19.5798H43.7678C42.6377 19.8521 41.6101 20.4493 40.8099 21.299C40.0096 22.1488 39.4709 23.2146 39.2593 24.367C39.2397 24.4812 39.1995 24.5907 39.1407 24.6902L38.5831 25.7673V16.48C38.5831 16.3213 38.5206 16.1691 38.4093 16.0569C38.2981 15.9447 38.1472 15.8816 37.9898 15.8816C37.8325 15.8816 37.6816 15.9447 37.5703 16.0569C37.4591 16.1691 37.3966 16.3213 37.3966 16.48V25.7314L37.2661 25.8271C36.6395 26.2231 36.0889 26.7299 35.6407 27.3232L35.4508 27.5865L35.178 27.4189ZM20.5136 43.863L21.9491 43.2886C22.0797 43.2287 22.2102 43.1449 22.2695 42.7021C22.3446 42.145 22.5565 41.6156 22.8859 41.1621C23.2154 40.7085 23.6519 40.3452 24.1559 40.1051C24.657 39.8646 25.2104 39.7561 25.7643 39.7895C26.3182 39.823 26.8547 39.9975 27.3237 40.2966C27.5308 40.4587 27.7853 40.5471 28.0475 40.5479C28.178 40.5479 28.3203 40.3325 28.4864 39.9974C28.8475 39.2447 29.4477 38.6356 30.1916 38.2669C30.9355 37.8982 31.7803 37.7911 32.5915 37.9628C33.4157 38.1386 34.1578 38.5877 34.6997 39.2384C35.2415 39.889 35.5519 40.7039 35.5814 41.5532C35.5814 42.1516 35.7712 42.2832 36.4 42.2593C36.9111 42.2034 37.4279 42.2783 37.9027 42.477C38.3776 42.6757 38.7952 42.9919 39.1169 43.3963L39.4729 43.875L20.5136 43.863ZM44.6339 43.863H40.5644L40.4932 43.6715C40.1473 42.7987 39.5149 42.072 38.7017 41.613L38.5475 41.5293V36.8138L38.9271 36.9215C39.4264 37.0575 39.9405 37.1299 40.4576 37.137C40.5939 37.1128 40.734 37.1219 40.8662 37.1635C40.9983 37.2052 41.1186 37.2781 41.217 37.3763C41.5268 37.7641 41.9117 38.0839 42.3483 38.3165C42.7848 38.549 43.2638 38.6893 43.7559 38.7287C44.2068 38.7287 44.6339 38.8245 44.6339 39.4229V43.863ZM51.2542 35.8564C50.6709 36.0365 50.0586 36.1016 49.4509 36.0479C49.304 36.0236 49.1534 36.0384 49.014 36.0909C48.8745 36.1434 48.7511 36.2317 48.6559 36.3471C48.1335 36.8955 47.4858 37.3064 46.7695 37.5439C46.5863 37.6129 46.3947 37.6572 46.2 37.6755C46.1023 37.679 46.0063 37.6495 45.9271 37.5918C45.7136 37.4362 45.7136 37.1729 45.7136 36.8019V26.5572C45.7195 26.4535 45.7195 26.3496 45.7136 26.246C45.7136 25.8271 45.4763 25.6117 45.1915 25.6237C45.114 25.6212 45.0369 25.6358 44.9655 25.6665C44.8942 25.6972 44.8304 25.7432 44.7784 25.8012C44.7265 25.8593 44.6877 25.9282 44.6648 26.0029C44.6419 26.0776 44.6354 26.1565 44.6458 26.2341C44.6458 27.2513 44.6458 28.2686 44.6458 29.2859V31.117L44.5271 31.2008L44.3492 31.3324L44.1475 31.4521L43.3407 30.6024C42.9017 30.1356 42.4627 29.6689 42.0119 29.2261C41.9578 29.165 41.8922 29.1155 41.8188 29.0806C41.7454 29.0456 41.6658 29.0259 41.5848 29.0226C41.5134 29.0222 41.4427 29.0369 41.3773 29.0657C41.3119 29.0946 41.2532 29.137 41.2051 29.1902C41.1133 29.3078 41.0695 29.4563 41.0827 29.6054C41.096 29.7545 41.1652 29.8928 41.2763 29.992C41.3254 30.0574 41.3811 30.1176 41.4424 30.1715L42.4034 31.1409C43.0204 31.7633 43.5898 32.3976 44.2661 33.008C44.3951 33.1252 44.497 33.2696 44.5647 33.4309C44.6323 33.5922 44.6641 33.7665 44.6576 33.9415C44.6576 34.8271 44.6576 35.8564 44.6576 36.8856C44.6805 37.0093 44.6718 37.1368 44.6323 37.2561C44.5929 37.3754 44.524 37.4827 44.4322 37.5678C44.3193 37.6296 44.1929 37.662 44.0644 37.662C43.936 37.662 43.8095 37.6296 43.6966 37.5678C43.0456 37.3804 42.4479 37.04 41.9526 36.5745C41.7752 36.3878 41.558 36.2445 41.3174 36.1553C41.0769 36.0661 40.8193 36.0335 40.5644 36.0598C39.9459 36.0784 39.3296 35.9768 38.7491 35.7606C38.0448 35.4981 37.4024 35.0905 36.8627 34.5638C36.1558 33.8174 35.6957 32.8683 35.5458 31.8471C35.4487 31.1047 35.5094 30.3499 35.7237 29.633C35.9049 29.0123 36.2075 28.4344 36.6136 27.9335C37.2475 27.1181 38.1189 26.5238 39.1051 26.2341C39.2801 26.1815 39.4584 26.1415 39.639 26.1144C40.0068 26.0426 40.161 25.8511 40.1966 25.4322C40.2219 24.5012 40.5099 23.5968 41.0268 22.8251C41.5438 22.0535 42.2683 21.4466 43.1152 21.0758C43.2564 21.0005 43.4032 20.9365 43.5543 20.8843C44.0836 20.6925 44.641 20.5914 45.2034 20.5851C46.4712 20.5857 47.6911 21.0737 48.6147 21.9498C49.5383 22.8259 50.0961 24.0241 50.1746 25.3005C50.1746 25.9109 50.3051 26.0067 50.9695 26.1622C52.0632 26.394 53.0478 26.9899 53.7653 27.8541C54.4828 28.7183 54.8916 29.8008 54.9258 30.9275C54.96 32.0543 54.6178 33.1599 53.954 34.0669C53.2903 34.9738 52.3437 35.6293 51.2661 35.9282L51.2542 35.8564Z" fill="black" fill-opacity="0.15"></path>
    <circle cx="28" cy="12" r="2.5" fill="#F6ADC6" stroke="#4D4D4D"></circle>
  </g>
  <defs>
    <clipPath id="clip0_183_76">
      <rect width="56" height="45" fill="white"></rect>
    </clipPath>
  </defs>
</svg>
