<?xml version="1.0" encoding="UTF-8"?>
<svg xmlns="http://www.w3.org/2000/svg" width="40" height="39" viewBox="0 0 40 39" fill="none">
  <g clip-path="url(#clip0_183_61)">
    <path d="M39.5174 36.5734C39.3842 36.5618 39.2503 36.5618 39.1171 36.5734H32.0542C31.7135 36.5761 31.3818 36.4652 31.1125 36.2585L29.1466 34.8585L29.0642 34.8002L27.5103 33.6919C27.1496 33.4248 26.7128 33.2777 26.2625 33.2719H25.0854C24.9046 33.3049 24.7178 33.2761 24.5556 33.1903C24.3908 33.0736 24.4497 32.8753 24.4968 32.7236C24.5052 32.6578 24.5052 32.5911 24.4968 32.5253C24.4968 32.0353 24.4968 31.5453 24.4968 31.0553V29.7954C24.4859 29.5826 24.5392 29.3715 24.6498 29.1888C26.0153 26.8555 27.0042 25.0356 27.993 23.3557C28.0427 23.251 28.1233 23.1636 28.2242 23.1053C28.3251 23.047 28.4415 23.0204 28.558 23.029H34.02C34.1485 23.021 34.2765 23.0511 34.3877 23.1156C34.4988 23.18 34.588 23.2758 34.6439 23.3907C35.7152 25.2806 36.8217 27.1939 37.9518 29.1538L38.764 30.5654C38.8136 30.6542 38.8686 30.7399 38.9288 30.822C38.9979 30.9131 39.0949 30.9793 39.2053 31.0109C39.3158 31.0425 39.4336 31.0376 39.5409 30.997C39.6578 30.96 39.758 30.8839 39.8246 30.7818C39.8911 30.6797 39.9199 30.5578 39.9059 30.437C39.8938 30.2967 39.8406 30.1629 39.7528 30.0521V29.9937L37.94 26.8439L35.4797 22.3757C34.5144 20.7114 33.5531 19.0431 32.5957 17.3709C32.4958 17.1521 32.3345 16.9665 32.1309 16.8363C31.9274 16.7061 31.6902 16.6369 31.4479 16.6369C31.2057 16.6369 30.9685 16.7061 30.7649 16.8363C30.5613 16.9665 30.4 17.1521 30.3002 17.3709C28.6757 20.1942 27.0041 23.1107 25.1678 26.2839L25.1089 26.3889C25.0617 26.5136 24.9802 26.6228 24.8735 26.7039H24.8146H24.744C24.7022 26.6767 24.6698 26.6377 24.6508 26.5918C24.6319 26.546 24.6275 26.4956 24.6381 26.4472V15.9477C24.6282 15.7931 24.6741 15.6402 24.7675 15.516C25.062 15.1895 25.2454 14.7796 25.2918 14.3441C25.3383 13.9087 25.2455 13.4698 25.0265 13.0894C24.8353 12.7146 24.5367 12.4039 24.1682 12.1964C23.7997 11.9889 23.3775 11.8937 22.9547 11.9228H18.3873C18.2562 11.9289 18.1254 11.907 18.0035 11.8587C17.8817 11.8104 17.7717 11.7368 17.681 11.6429L15.5974 9.67127L14.2908 8.32966C13.7211 7.74303 12.9553 7.38221 12.1366 7.31471H12.0424C11.9728 7.32413 11.9021 7.30956 11.8421 7.27345C11.7821 7.23734 11.7364 7.18188 11.7128 7.11637C11.6829 7.0491 11.6759 6.97401 11.6929 6.90244C11.7098 6.83087 11.7499 6.76672 11.807 6.71973C12.435 5.86084 12.7086 4.79687 12.5721 3.74487C12.5073 3.17283 12.3218 2.62067 12.0278 2.12425C11.7337 1.62783 11.3376 1.19824 10.8652 0.863323C10.3914 0.51928 9.85067 0.276319 9.27728 0.149817C8.70389 0.0233152 8.11027 0.0160141 7.53388 0.128349C6.97089 0.241982 6.43701 0.467564 5.96449 0.791478C5.49198 1.11539 5.09063 1.5309 4.78475 2.01289C4.47886 2.49487 4.27477 3.03332 4.18481 3.59569C4.09485 4.15807 4.12089 4.73266 4.26137 5.28478C4.35554 5.63476 4.39085 5.78643 4.26137 5.91476C4.13188 6.04309 3.9906 6.03143 3.6139 6.03143H3.22546C2.93536 6.04893 2.64443 6.04893 2.35433 6.03143H2.06004C1.59251 6.00251 1.12903 6.13237 0.745971 6.39959C0.362917 6.66681 0.0831981 7.05544 -0.0470548 7.50138V10.2546L0.0706687 10.4296C0.168014 10.6123 0.304637 10.7716 0.4709 10.8962C0.534675 10.949 0.581842 11.0189 0.606873 11.0974C0.631903 11.176 0.633747 11.26 0.612154 11.3395C0.612154 11.3395 0.612154 11.3979 0.612154 11.4329V14.8044C0.612154 16.216 0.612154 17.6159 0.612154 19.0275C0.57193 19.4591 0.683589 19.8913 0.928178 20.2506C1.17277 20.61 1.53521 20.8744 1.9541 20.9991C2.60154 21.1974 2.62509 21.2441 2.62509 21.9557V26.0039C2.62509 29.7137 2.62509 33.5402 2.62509 37.2967C2.62509 37.5417 2.6251 37.6701 2.48384 37.7634C2.42198 37.8088 2.35157 37.8415 2.27677 37.8595C2.20197 37.8776 2.12429 37.8806 2.04829 37.8684C1.81286 37.8684 1.57742 37.8684 1.34199 37.8684H0.682781C0.540162 37.8561 0.39675 37.8808 0.266707 37.9401C0.136664 37.9995 0.0244723 38.0913 -0.0588379 38.2067V38.615C0.0240694 38.7443 0.142008 38.8479 0.281472 38.9139C0.420935 38.9799 0.576317 39.0057 0.729877 38.9883H9.04064C9.3873 39.0016 9.7322 38.9335 10.0472 38.7895C10.3623 38.6456 10.6385 38.4299 10.8534 38.1601C11.3361 37.5884 11.8305 36.9934 12.3132 36.4685L12.5957 36.1418C12.9959 35.6752 13.3961 35.2202 13.7728 34.7535C13.8837 34.6145 14.025 34.5023 14.1862 34.4255C14.3473 34.3487 14.524 34.3093 14.7028 34.3102H25.7563C26.2147 34.2989 26.6632 34.4429 27.0277 34.7185C27.7104 35.2202 28.4167 35.7218 29.0995 36.2001L29.1819 36.2585L30.5356 37.2151C30.9409 37.5209 31.4389 37.6814 31.9482 37.6701H39.2231C39.3169 37.6813 39.4118 37.6813 39.5056 37.6701C39.6356 37.65 39.7533 37.5828 39.836 37.4814C39.9187 37.3801 39.9603 37.2519 39.9529 37.1218C39.9663 36.9922 39.9284 36.8626 39.8471 36.7603C39.7658 36.6579 39.6476 36.5909 39.5174 36.5734ZM29.0289 21.7458L31.3832 17.6276L31.4891 17.8026L33.8434 21.9207H28.8876L29.0289 21.7458ZM16.9276 12.6811C16.972 12.682 17.0157 12.6918 17.0562 12.7099C17.0966 12.7279 17.133 12.7538 17.1631 12.7861C17.4268 12.9925 17.7575 13.0963 18.093 13.0778H20.3649C20.4197 13.0723 20.4749 13.0778 20.5275 13.0938C20.5801 13.1098 20.6289 13.1361 20.671 13.1711C20.7069 13.2125 20.7338 13.2608 20.75 13.313C20.7662 13.3652 20.7714 13.4202 20.7652 13.4744C20.7652 13.9761 20.7652 14.4311 20.7652 14.8744C20.7723 14.9305 20.7677 14.9874 20.7515 15.0417C20.7352 15.0959 20.7079 15.1462 20.671 15.1894C20.6277 15.2268 20.5772 15.2553 20.5227 15.2734C20.4681 15.2914 20.4105 15.2985 20.3532 15.2944H17.2337C16.674 15.2539 16.1495 15.0086 15.7622 14.6061C15.7206 14.5733 15.6869 14.5316 15.6638 14.4841C15.6406 14.4367 15.6286 14.3846 15.6286 14.3319C15.6286 14.2792 15.6406 14.2271 15.6638 14.1797C15.6869 14.1322 15.7206 14.0905 15.7622 14.0578L16.7157 12.8911C16.7334 12.8429 16.7615 12.799 16.7981 12.7628C16.8347 12.7265 16.8789 12.6986 16.9276 12.6811ZM11.854 9.79958C11.854 9.43792 11.854 9.14629 11.854 8.8313C11.8419 8.77422 11.843 8.71515 11.8573 8.65856C11.8716 8.60197 11.8986 8.54935 11.9365 8.50465C11.9902 8.48119 12.0484 8.46908 12.1071 8.46908C12.1659 8.46908 12.2241 8.48119 12.2778 8.50465C12.653 8.56611 13.0013 8.73667 13.2784 8.99464L14.6557 10.3479L14.9853 10.6745L15.8682 11.5495C15.9055 11.5813 15.9354 11.6207 15.956 11.665C15.9765 11.7093 15.9872 11.7574 15.9872 11.8062C15.9872 11.8549 15.9765 11.9031 15.956 11.9474C15.9354 11.9917 15.9055 12.0311 15.8682 12.0628C15.515 12.4711 15.1972 12.8794 14.8911 13.2294C14.864 13.2689 14.8291 13.3026 14.7887 13.3286C14.7483 13.3547 14.7031 13.3725 14.6557 13.3811C14.6066 13.3776 14.5588 13.3631 14.5161 13.3389C14.4733 13.3147 14.4365 13.2813 14.4085 13.2411L13.6551 12.5061C13.5822 12.4166 13.4817 12.3533 13.369 12.3259C13.2563 12.2985 13.1376 12.3085 13.0312 12.3545C12.9168 12.3976 12.8201 12.4772 12.7562 12.5806C12.6923 12.6841 12.6649 12.8056 12.6781 12.9261V18.8409C12.6781 19.0625 12.6781 19.2609 12.2661 19.2725H11.9365C11.7219 19.3029 11.5037 19.253 11.3243 19.1325C11.1595 18.9809 11.1595 18.7125 11.1595 18.1642V11.3512C11.1485 11.2339 11.1675 11.1157 11.2148 11.0076C11.2622 10.8995 11.3363 10.805 11.4303 10.7329C11.5679 10.6195 11.6775 10.4765 11.7509 10.3147C11.8244 10.153 11.8596 9.97683 11.854 9.79958ZM16.0918 23.869C16.0918 24.9656 16.0918 26.0856 16.0918 27.1705V27.3339C16.0918 28.0494 16.0918 28.761 16.0918 29.4688C16.0979 29.5293 16.0916 29.5904 16.0734 29.6485C16.0553 29.7067 16.0255 29.7606 15.9859 29.8071C15.9441 29.8427 15.8954 29.8693 15.8427 29.8854C15.79 29.9015 15.7346 29.9066 15.6798 29.9004H12.7958C12.7447 29.909 12.6924 29.9063 12.6425 29.8926C12.5926 29.8789 12.5464 29.8544 12.5071 29.821C12.4678 29.7876 12.4363 29.7461 12.415 29.6993C12.3937 29.6525 12.3831 29.6017 12.3838 29.5504C12.3014 28.7571 12.1954 27.9405 12.1013 27.2172C12.0071 26.4939 11.9247 25.8523 11.8423 25.1756C11.8377 25.0076 11.7996 24.8421 11.7301 24.6888C11.6607 24.5355 11.5612 24.3973 11.4375 24.2823C11.3138 24.1673 11.1683 24.0777 11.0095 24.0188C10.8506 23.9599 10.6816 23.9328 10.5121 23.939H9.33494C9.16523 23.9295 8.99534 23.9544 8.8357 24.0122C8.67606 24.0701 8.53004 24.1597 8.40658 24.2755C8.28313 24.3913 8.18483 24.5308 8.11775 24.6856C8.05068 24.8404 8.01625 25.0072 8.01652 25.1756C7.88703 27.1005 7.76931 29.0255 7.63982 30.9387L7.45147 33.8786C7.46743 33.962 7.46516 34.0478 7.44486 34.1303C7.42455 34.2128 7.38667 34.2901 7.33374 34.3569C7.27024 34.4133 7.19555 34.4559 7.11446 34.482C7.03338 34.5081 6.9477 34.5172 6.86289 34.5085H6.78048C6.08595 34.5085 5.34434 34.5085 4.35552 34.5085C4.19735 34.5215 4.03947 34.4803 3.9082 34.3919C3.85671 34.331 3.81862 34.2601 3.79633 34.1837C3.77403 34.1074 3.76803 34.0273 3.77872 33.9486C3.77872 32.4203 3.77872 30.9037 3.77872 29.3521V21.4657C3.77872 21.2558 3.77872 21.1391 3.84935 21.0575C3.91998 20.9758 4.07301 20.9758 4.32021 20.9758H6.13305C7.18073 20.9758 8.26372 20.9758 9.33494 20.9758C9.76723 20.9786 10.1857 20.8251 10.5121 20.5441C10.6633 20.4076 10.8608 20.3326 11.0654 20.3342H11.7834C12.222 20.294 12.6633 20.294 13.1018 20.3342C13.9613 20.4339 14.7497 20.8555 15.3056 21.5127C15.8615 22.1699 16.1428 23.0129 16.0918 23.869ZM6.05064 2.09993C6.48312 1.64623 7.04228 1.33062 7.65667 1.19346C8.27105 1.05631 8.91273 1.10385 9.49972 1.32996C10.0828 1.56266 10.5814 1.96452 10.9301 2.48287C11.2788 3.00123 11.4614 3.61189 11.4538 4.23483C11.45 4.81688 11.2829 5.38642 10.9712 5.87976C10.9361 5.9409 10.8868 5.99289 10.8275 6.03143C10.7681 6.06997 10.7004 6.09396 10.6298 6.10142H10.4415C10.2383 6.02786 10.0212 5.99996 9.80579 6.01975H8.73457C7.91056 6.01975 7.06299 6.01975 6.22721 6.01975C6.08163 6.02989 5.93677 5.99185 5.81534 5.91163C5.69391 5.8314 5.60277 5.71351 5.55622 5.57643C5.2764 5.01486 5.17391 4.38274 5.26211 3.76256C5.3503 3.14239 5.62511 2.56298 6.05064 2.09993ZM1.15364 9.85793C1.07829 9.75747 1.04461 9.63222 1.05948 9.50792C1.05948 9.22793 1.05948 8.9363 1.05948 8.65631V7.99133C1.04425 7.86822 1.05749 7.7433 1.09824 7.62602C1.139 7.50874 1.20618 7.40221 1.29468 7.3145C1.38318 7.22679 1.49068 7.16022 1.60901 7.11983C1.72735 7.07943 1.85344 7.06628 1.97767 7.08138H9.74695C9.87099 7.06176 9.99793 7.07134 10.1175 7.10936C10.2372 7.14737 10.346 7.21277 10.4354 7.30022C10.5248 7.38768 10.5922 7.49474 10.6321 7.61278C10.672 7.73081 10.6833 7.85648 10.6651 7.97966V8.56297C10.6651 8.86629 10.6651 9.15795 10.6651 9.4496C10.6836 9.59412 10.6457 9.74017 10.5592 9.85793C10.4487 9.94316 10.3103 9.98474 10.1707 9.9746H1.49503C1.38295 9.96959 1.27553 9.92864 1.18895 9.85793H1.15364ZM1.754 11.5845C1.74168 11.5148 1.74477 11.4431 1.76306 11.3747C1.78135 11.3062 1.8144 11.2424 1.85994 11.1879C1.91089 11.1432 1.9708 11.1097 2.03572 11.0896C2.10064 11.0695 2.16911 11.0633 2.23664 11.0712H9.58213C9.64694 11.064 9.71256 11.0695 9.77519 11.0876C9.83782 11.1056 9.89621 11.1357 9.94705 11.1762C9.98703 11.2268 10.016 11.285 10.0322 11.3473C10.0484 11.4095 10.0515 11.4744 10.0412 11.5379C10.0412 11.8178 10.0412 12.1095 10.0412 12.3895V12.5411C10.0412 12.7395 10.0412 12.9261 10.0412 13.1244C10.0476 13.3218 10.0135 13.5184 9.94094 13.7023C9.86838 13.8863 9.75889 14.0537 9.6191 14.1944C9.4793 14.3351 9.31215 14.4462 9.12773 14.521C8.9433 14.5958 8.74545 14.6326 8.54622 14.6294H3.2843C3.08421 14.6376 2.88459 14.6046 2.69802 14.5325C2.51145 14.4604 2.34197 14.3507 2.20036 14.2103C2.05875 14.07 1.94806 13.9021 1.87528 13.7172C1.8025 13.5323 1.76922 13.3344 1.77753 13.1361C1.77753 12.9378 1.77753 12.7278 1.77753 12.5178C1.77753 12.3078 1.80109 11.8995 1.78932 11.5845H1.754ZM2.60156 19.9258C2.49821 19.9409 2.3928 19.9337 2.29247 19.9049C2.19214 19.8761 2.09922 19.8263 2.01999 19.7588C1.94075 19.6914 1.87704 19.6078 1.83318 19.5138C1.78932 19.4199 1.76633 19.3177 1.76575 19.2142C1.76575 18.3276 1.76575 17.4293 1.76575 16.5543V15.3877L1.91879 15.446L2.20133 15.5393C2.46163 15.6543 2.7408 15.7215 3.02532 15.7377C3.06466 15.7335 3.10445 15.7387 3.14132 15.7529C3.17819 15.7671 3.21106 15.7899 3.2372 15.8193C3.29392 15.8923 3.31933 15.9845 3.30787 16.076V16.4726C3.30787 16.6943 3.30787 16.9276 3.30787 17.1493C3.3031 17.2253 3.31371 17.3015 3.33909 17.3734C3.36446 17.4453 3.40408 17.5115 3.45562 17.568C3.50717 17.6245 3.5696 17.6703 3.63923 17.7025C3.70887 17.7348 3.78432 17.7529 3.86114 17.7559C4.01831 17.7469 4.16559 17.677 4.27128 17.5613C4.37697 17.4457 4.43259 17.2935 4.42615 17.1376V16.1343C4.41599 16.0809 4.41813 16.0259 4.4324 15.9733C4.44667 15.9208 4.4727 15.8722 4.50856 15.831C4.58287 15.7657 4.68019 15.7322 4.77932 15.7377H6.95704C7.00811 15.7327 7.05967 15.7384 7.10836 15.7545C7.15704 15.7706 7.20176 15.7966 7.23959 15.831C7.27644 15.8742 7.30381 15.9245 7.32002 15.9787C7.33623 16.0329 7.34091 16.0899 7.33374 16.146C7.33374 16.5193 7.33374 16.8576 7.33374 17.1843C7.33054 17.3308 7.38546 17.4728 7.48671 17.5797C7.58795 17.6866 7.72743 17.7498 7.87523 17.7559C8.0252 17.75 8.16723 17.6875 8.27226 17.5812C8.37729 17.475 8.4374 17.333 8.44028 17.1843V16.0177C8.43256 15.975 8.43382 15.9312 8.44394 15.8891C8.45407 15.8469 8.47284 15.8073 8.49912 15.7727C8.52636 15.7447 8.55942 15.7228 8.59601 15.7087C8.6326 15.6946 8.67186 15.6886 8.71104 15.691C9.10101 15.6595 9.48094 15.5525 9.82932 15.376L10.0059 15.306V16.4726C10.0059 17.3593 10.0059 18.1992 10.0059 19.0509C10.0119 19.1617 9.99337 19.2725 9.95147 19.3755C9.90956 19.4784 9.84536 19.571 9.7634 19.6466C9.68145 19.7223 9.5837 19.7792 9.47712 19.8133C9.37054 19.8475 9.25772 19.858 9.14659 19.8442H2.63688L2.60156 19.9258ZM8.97002 37.8801H4.19074C4.06364 37.8927 3.93663 37.855 3.83757 37.7751C3.80005 37.7277 3.7724 37.6734 3.75624 37.6153C3.74007 37.5572 3.73573 37.4965 3.74341 37.4367C3.74341 36.9934 3.74341 36.5618 3.74341 36.0485C3.73027 35.9948 3.73106 35.9388 3.74571 35.8855C3.76036 35.8322 3.78839 35.7835 3.82719 35.7439C3.86598 35.7043 3.91426 35.6751 3.96754 35.659C4.02082 35.6429 4.07736 35.6404 4.13186 35.6518H5.40322C6.22723 35.6518 7.06301 35.6518 7.8988 35.6518C8.10118 35.6498 8.30182 35.6891 8.48817 35.7674C8.67451 35.8457 8.84253 35.9612 8.98177 36.1068C9.28905 36.5408 9.41169 37.0772 9.32315 37.6001C9.32169 37.6394 9.31222 37.6781 9.29528 37.7137C9.27833 37.7493 9.25428 37.7812 9.22458 37.8074C9.19488 37.8335 9.16013 37.8534 9.12244 37.8659C9.08476 37.8784 9.04494 37.8832 9.00533 37.8801H8.97002ZM12.4426 34.6485L12.1954 34.9402L10.5121 36.8768L10.4532 36.6668C10.3446 36.1797 10.1092 35.7292 9.77048 35.3602C9.56633 35.1111 9.29781 34.9216 8.99355 34.8118C8.56977 34.6835 8.51089 34.4269 8.53444 34.0536C8.6757 32.0703 8.81696 30.0287 8.94645 28.0688V27.2522C8.94645 26.7039 9.02887 26.0856 9.04064 25.5723C9.04064 25.1873 9.21721 25.0239 9.58213 25.0239H9.67629C10.618 25.0239 10.6534 25.0823 10.7711 26.0272C10.9359 27.4272 11.1124 28.8271 11.2772 30.227C11.3428 31.0502 11.3428 31.8771 11.2772 32.7003C11.2419 32.8852 11.2445 33.0754 11.285 33.2593C11.3255 33.4433 11.403 33.6172 11.5129 33.7708C11.6228 33.9244 11.7628 34.0544 11.9246 34.1531C12.0864 34.2518 12.2666 34.3171 12.4544 34.3452H12.6428L12.4426 34.6485ZM18.0459 32.9803C18.0461 33.0226 18.0362 33.0644 18.0169 33.1021C17.9977 33.1399 17.9697 33.1727 17.9353 33.1977C17.9009 33.2227 17.8609 33.2393 17.8188 33.2462C17.7766 33.253 17.7335 33.2498 17.6928 33.2369H12.8782C12.8216 33.244 12.7641 33.2394 12.7094 33.2233C12.6547 33.2073 12.6039 33.1801 12.5604 33.1436C12.5212 33.0995 12.4925 33.0472 12.4762 32.9907C12.4599 32.9343 12.4565 32.8749 12.4662 32.8169C12.4662 32.3853 12.4662 31.9186 12.4662 31.4287C12.4566 31.3725 12.4601 31.315 12.4764 31.2604C12.4928 31.2058 12.5215 31.1556 12.5604 31.1137C12.6012 31.076 12.6495 31.0472 12.7022 31.0291C12.7549 31.0111 12.8108 31.0041 12.8664 31.0087H16.6451C16.8641 30.9938 17.0837 31.0279 17.2875 31.1087C17.4913 31.1895 17.6741 31.3148 17.8223 31.4753C17.972 31.6975 18.0724 31.9485 18.1171 32.2119C18.1617 32.4754 18.1495 32.7452 18.0812 33.0036L18.0459 32.9803ZM20.6946 33.2136H20.5768H20.2472H19.8705C19.7085 33.2178 19.5476 33.1859 19.3997 33.1203C19.0936 32.9686 19.1289 32.6419 19.1525 32.3736C19.1702 32.2537 19.1702 32.1319 19.1525 32.012C19.091 31.5799 18.9147 31.1718 18.6416 30.8294C18.3686 30.4871 18.0086 30.2228 17.5986 30.0637C17.4567 30.0207 17.3348 29.929 17.255 29.8049C17.1752 29.6809 17.1426 29.5328 17.1631 29.3871C17.1631 27.8821 17.1631 26.3655 17.1631 24.8956V23.9273C17.1971 22.9646 16.9212 22.0161 16.3752 21.2191C15.8292 20.4221 15.0414 19.818 14.126 19.4942C14.0296 19.4703 13.9444 19.4144 13.8844 19.3359C13.8245 19.2574 13.7934 19.1609 13.7964 19.0625V14.466H13.8788C13.9419 14.4398 14.0125 14.4371 14.0775 14.4586C14.1424 14.4801 14.1973 14.5242 14.2319 14.5827L14.8205 15.1544L14.9853 15.3294C15.3036 15.645 15.6817 15.895 16.0978 16.0652C16.514 16.2354 16.96 16.3223 17.4103 16.321H17.4927C18.3638 16.321 19.2702 16.321 20.1648 16.321H20.2354C20.2992 16.3156 20.3634 16.3232 20.4242 16.3432C20.4849 16.3633 20.5408 16.3954 20.5886 16.4376C20.6848 16.5645 20.7271 16.7236 20.7063 16.8809C20.7063 21.1741 20.7063 25.5489 20.7063 29.7837V30.857C20.6912 31.5777 20.7226 32.2986 20.8005 33.0153V33.1203L20.6946 33.2136ZM23.4256 27.6372V32.1053C23.4435 32.276 23.4435 32.448 23.4256 32.6186C23.3994 32.7948 23.3074 32.9549 23.168 33.0672C23.0285 33.1795 22.8516 33.2359 22.6722 33.2253C22.4871 33.2176 22.311 33.1435 22.1768 33.017C22.0426 32.8904 21.9593 32.7198 21.9423 32.537C21.9365 32.4359 21.9365 32.3347 21.9423 32.2336V22.9007C21.9423 20.9641 21.9423 18.9575 21.9423 16.9743C21.9316 16.8955 21.9376 16.8154 21.9599 16.7391C21.9822 16.6628 22.0203 16.5919 22.0718 16.531C22.13 16.4878 22.1977 16.459 22.2693 16.4468C22.341 16.4346 22.4145 16.4395 22.4838 16.461C22.6245 16.4792 22.767 16.4792 22.9076 16.461C22.9763 16.4242 23.0532 16.405 23.1313 16.405C23.2094 16.405 23.2862 16.4242 23.355 16.461C23.4962 16.566 23.508 16.7643 23.508 16.9859C23.4609 20.6141 23.4609 24.254 23.4609 27.6372H23.4256ZM23.8493 14.8744C23.7381 14.9946 23.6038 15.0917 23.4542 15.1598C23.3046 15.2279 23.1428 15.2657 22.9783 15.271H22.5662C22.3872 15.2939 22.206 15.248 22.0601 15.1427C21.8953 14.991 21.8952 14.7344 21.8952 14.2211V14.1161C21.8723 14.06 21.8723 13.9972 21.8952 13.9411C21.9239 13.8579 21.9239 13.7676 21.8952 13.6844C21.8635 13.6107 21.8472 13.5313 21.8472 13.4511C21.8472 13.3709 21.8635 13.2916 21.8952 13.2178C21.9515 13.1608 22.0196 13.1167 22.0948 13.0885C22.1701 13.0603 22.2506 13.0487 22.3308 13.0544C23.508 12.9844 23.9788 13.2878 24.073 14.1161C24.1135 14.3836 24.0458 14.6561 23.8847 14.8744H23.8493Z" fill="#4D4D4D"></path>
    <path d="M10.0529 19.1325C10.059 19.2433 10.0404 19.3542 9.99849 19.4571C9.95658 19.5601 9.89238 19.6526 9.81043 19.7283C9.72847 19.8039 9.63073 19.8609 9.52415 19.895C9.41756 19.9291 9.30474 19.9397 9.19361 19.9258H2.6368C2.53345 19.9409 2.42804 19.9337 2.32771 19.9049C2.22738 19.8761 2.13446 19.8263 2.05522 19.7588C1.97599 19.6914 1.91228 19.6078 1.86842 19.5138C1.82456 19.4199 1.8016 19.3177 1.80103 19.2142C1.80103 18.3275 1.80103 17.4293 1.80103 16.5543V15.3877L1.95403 15.446L2.23657 15.5393C2.49687 15.6543 2.77604 15.7215 3.06056 15.7377C3.0999 15.7335 3.13969 15.7387 3.17656 15.7529C3.21343 15.7671 3.24633 15.7899 3.27248 15.8193C3.32919 15.8923 3.35457 15.9845 3.34311 16.076V16.4726C3.34311 16.6943 3.34311 16.9276 3.34311 17.1493C3.33834 17.2253 3.34895 17.3015 3.37432 17.3734C3.3997 17.4453 3.43932 17.5115 3.49086 17.568C3.54241 17.6245 3.60484 17.6703 3.67447 17.7025C3.7441 17.7348 3.81956 17.7529 3.89637 17.7559C4.05355 17.7469 4.20083 17.677 4.30652 17.5613C4.41221 17.4457 4.46783 17.2935 4.46139 17.1376V16.1343C4.45123 16.0809 4.45337 16.0258 4.46764 15.9733C4.48191 15.9208 4.50794 15.8722 4.5438 15.831C4.61811 15.7657 4.71543 15.7322 4.81456 15.7377H6.99228C7.04335 15.7327 7.09491 15.7384 7.1436 15.7545C7.19228 15.7706 7.237 15.7966 7.27483 15.831C7.31168 15.8742 7.33905 15.9244 7.35526 15.9787C7.37147 16.0329 7.37615 16.0899 7.36898 16.146C7.36898 16.5193 7.36898 16.8576 7.36898 17.1843C7.36577 17.3308 7.4207 17.4728 7.52195 17.5797C7.62319 17.6866 7.76267 17.7498 7.91047 17.7559C8.06044 17.75 8.20247 17.6875 8.3075 17.5812C8.41253 17.475 8.47264 17.333 8.47552 17.1843V16.0177C8.4678 15.975 8.46906 15.9312 8.47918 15.8891C8.48931 15.8469 8.50808 15.8073 8.53436 15.7727C8.5616 15.7447 8.59466 15.7228 8.63125 15.7087C8.66784 15.6946 8.7071 15.6886 8.74628 15.691C9.13625 15.6595 9.51618 15.5525 9.86456 15.376L10.0412 15.306V16.4726C10.0647 17.4409 10.0647 18.2809 10.0529 19.1325Z" fill="#F6ADC6"></path>
    <path d="M30.006 9.97459C30.7284 10.6779 31.7007 11.0717 32.7134 11.0712H32.7723C33.7701 11.0099 34.7063 10.5719 35.3883 9.84745C36.0702 9.12295 36.4461 8.16701 36.4385 7.17624C36.431 6.18548 36.0407 5.23524 35.3477 4.52102C34.6548 3.8068 33.7121 3.38291 32.7134 3.33653C32.2048 3.34267 31.7024 3.44895 31.2356 3.64923C30.7688 3.84951 30.3468 4.13979 29.9942 4.50315C29.6176 4.86952 29.3194 5.30725 29.1171 5.79028C28.9149 6.27331 28.8128 6.79176 28.817 7.3147C28.8445 8.32188 29.2718 9.27766 30.006 9.97459ZM32.737 4.43316C33.1003 4.4324 33.46 4.50314 33.7955 4.64132C34.1309 4.77951 34.4354 4.98239 34.6911 5.23812C34.9532 5.49881 35.1609 5.80813 35.3023 6.14844C35.4437 6.48874 35.516 6.85333 35.5151 7.22135C35.5151 7.95464 35.2212 8.6579 34.6979 9.17642C34.1747 9.69493 33.4651 9.98623 32.7252 9.98623C31.9853 9.98623 31.2757 9.69493 30.7525 9.17642C30.2293 8.6579 29.9353 7.95464 29.9353 7.22135C29.9384 6.48482 30.2342 5.77918 30.7586 5.25728C31.283 4.73538 31.9938 4.43929 32.737 4.43316Z" fill="#4D4D4D"></path>
    <path d="M38.2813 7.19803C38.2769 7.32926 38.3212 7.45753 38.4058 7.55858C38.4904 7.65962 38.6095 7.72644 38.7404 7.74634C38.8223 7.75903 38.9058 7.75903 38.9877 7.74634H39.482C39.6236 7.73461 39.7555 7.67047 39.8515 7.5667C39.9475 7.46292 40.0005 7.32713 40 7.18636C40.0033 7.05098 39.9538 6.91955 39.8616 6.81954C39.7695 6.71954 39.6419 6.65871 39.5056 6.64972C39.2554 6.62034 39.0025 6.62034 38.7522 6.64972C38.6846 6.6541 38.6186 6.67188 38.558 6.70202C38.4975 6.73216 38.4437 6.77404 38.3998 6.82517C38.3558 6.8763 38.3227 6.93565 38.3024 6.99969C38.2821 7.06374 38.2749 7.13119 38.2813 7.19803Z" fill="#4D4D4D"></path>
    <path d="M33.3137 13.6844V13.4511C33.32 13.3851 33.32 13.3187 33.3137 13.2528C33.3107 13.1052 33.2502 12.9645 33.1449 12.8601C33.0396 12.7557 32.8976 12.6958 32.7487 12.6928C32.6071 12.6928 32.4711 12.7477 32.3699 12.8458C32.2687 12.944 32.2103 13.0775 32.2072 13.2178C32.1775 13.4541 32.1775 13.6931 32.2072 13.9294C32.2085 13.9954 32.2235 14.0603 32.2514 14.1202C32.2793 14.1801 32.3193 14.2337 32.3691 14.2775C32.4188 14.3213 32.4772 14.3545 32.5405 14.3749C32.6038 14.3953 32.6707 14.4025 32.7369 14.396C32.8662 14.4004 32.9927 14.3578 33.0925 14.2761C33.1922 14.1945 33.2584 14.0794 33.2784 13.9528C33.3024 13.8653 33.3142 13.775 33.3137 13.6844Z" fill="#4D4D4D"></path>
    <path d="M25.4738 7.19803C25.4738 7.53635 25.7563 7.758 26.1918 7.76967H26.6509C26.7936 7.76669 26.9296 7.70921 27.0305 7.60921C27.1314 7.5092 27.1894 7.37442 27.1924 7.23303C27.1972 7.15967 27.1868 7.08609 27.1618 7.01689C27.1368 6.94769 27.0976 6.88433 27.0469 6.83073C26.9961 6.77713 26.9348 6.73443 26.8666 6.7053C26.7985 6.67617 26.7251 6.66124 26.6509 6.6614H26.1683C25.7327 6.6614 25.4738 6.85972 25.4738 7.19803Z" fill="#4D4D4D"></path>
    <path d="M32.7486 1.00172e-05C32.6813 -0.00319915 32.6141 0.00762024 32.5512 0.0317317C32.4884 0.0558431 32.4313 0.0927064 32.3837 0.139998C32.2081 0.387427 32.1364 0.692788 32.1836 0.991641C32.1747 1.09728 32.1878 1.20364 32.2222 1.30402C32.2567 1.40439 32.3116 1.49661 32.3837 1.57495C32.4847 1.66183 32.615 1.70769 32.7486 1.7033C33.1253 1.7033 33.2902 1.43496 33.2902 0.851653C33.3124 0.590997 33.2323 0.331884 33.0665 0.128356C32.9806 0.0474771 32.8671 0.00163615 32.7486 1.00172e-05Z" fill="#4D4D4D"></path>
    <path d="M27.5221 2.23991C27.4649 2.32446 27.4343 2.42394 27.4343 2.52572C27.4343 2.62751 27.4649 2.72699 27.5221 2.81154C27.6823 3.04258 27.8862 3.24067 28.1224 3.39485C28.2043 3.44312 28.2979 3.46862 28.3932 3.46862C28.4885 3.46862 28.582 3.44312 28.6639 3.39485C28.7523 3.35121 28.8273 3.28494 28.8811 3.20288C28.935 3.12082 28.9656 3.02598 28.97 2.92821C28.9279 2.69049 28.8079 2.47316 28.6286 2.3099C28.4534 2.11449 28.2171 1.98301 27.9576 1.93658C27.8664 1.95054 27.7796 1.98519 27.704 2.03779C27.6285 2.0904 27.5662 2.15956 27.5221 2.23991Z" fill="#4D4D4D"></path>
    <path d="M37.0688 10.9312C36.9671 10.9289 36.8667 10.955 36.7793 11.0066C36.6919 11.0581 36.6209 11.1331 36.5744 11.2228C36.5172 11.3074 36.4867 11.4069 36.4867 11.5087C36.4867 11.6105 36.5172 11.71 36.5744 11.7945C36.736 12.0132 36.9306 12.206 37.1513 12.3661C37.2366 12.4228 37.3369 12.4531 37.4397 12.4531C37.5424 12.4531 37.6427 12.4228 37.7281 12.3661C37.819 12.3163 37.8932 12.2411 37.9413 12.1499C37.9895 12.0586 38.0095 11.9553 37.9988 11.8528C37.9274 11.6378 37.806 11.4424 37.6445 11.2823C37.483 11.1223 37.2858 11.002 37.0688 10.9312Z" fill="#4D4D4D"></path>
    <path d="M36.5744 2.67156C36.5257 2.75274 36.5 2.84545 36.5 2.9399C36.5 3.03435 36.5257 3.12702 36.5744 3.2082C36.6229 3.29624 36.6944 3.36976 36.7814 3.42106C36.8683 3.47237 36.9676 3.49958 37.0688 3.49985C37.3092 3.45389 37.5258 3.32594 37.6809 3.1382C37.8671 2.97205 37.995 2.75135 38.0459 2.50822C38.046 2.40937 38.0186 2.3124 37.9667 2.22799C37.9147 2.14359 37.8403 2.07507 37.7516 2.02994C37.6768 1.98541 37.5916 1.96126 37.5044 1.95994C37.413 1.95788 37.323 1.9822 37.2454 2.02994C36.9747 2.18951 36.745 2.40914 36.5744 2.67156Z" fill="#4D4D4D"></path>
    <path d="M28.146 11.0129C27.8961 11.1727 27.6834 11.3835 27.5221 11.6312C27.4732 11.7101 27.4473 11.801 27.4473 11.8937C27.4473 11.9863 27.4732 12.0772 27.5221 12.1562C27.5665 12.245 27.6355 12.3195 27.7209 12.3711C27.8063 12.4227 27.9047 12.4493 28.0047 12.4478C28.2109 12.3892 28.4023 12.2883 28.5666 12.1516C28.7309 12.0149 28.8643 11.8456 28.9582 11.6545C28.9916 11.5495 28.9922 11.437 28.9602 11.3316C28.9281 11.2262 28.8648 11.1328 28.7784 11.0636C28.6921 10.9944 28.5867 10.9525 28.476 10.9435C28.3653 10.9344 28.2544 10.9586 28.1578 11.0129H28.146Z" fill="#4D4D4D"></path>
  </g>
  <defs>
    <clipPath id="clip0_183_61">
      <rect width="40" height="39" fill="white"></rect>
    </clipPath>
  </defs>
</svg>
